<svg xmlns="http://www.w3.org/2000/svg" viewBox="0 0 24 24" width="64" height="64">
  <path d="M12 .5C5.37.5 0 5.87 0 12.5 0 17.84 3.44 22.3 8.2 23.95c.6.12.82-.26.82-.58 0-.29-.01-1.05-.02-2.06-3.34.72-4.05-1.61-4.05-1.61-.54-1.36-1.32-1.72-1.32-1.72-1.08-.74.08-.73.08-.73 1.2.08 1.83 1.23 1.83 1.23 1.06 1.82 2.77 1.3 3.45.99.1-.77.42-1.3.76-1.6-2.66-.3-5.46-1.33-5.46-5.94 0-1.31.47-2.39 1.23-3.23-.12-.3-.53-1.52.12-3.17 0 0 1-.32 3.3 1.23a11.54 11.54 0 0 1 6 0c2.3-1.55 3.3-1.23 3.3-1.23.65 1.65.24 2.87.12 3.17.76.84 1.23 1.92 1.23 3.23 0 4.62-2.8 5.63-5.47 5.93.43.37.81 1.1.81 2.22 0 1.6-.01 2.9-.01 3.3 0 .32.21.7.83.58C20.56 22.3 24 17.84 24 12.5 24 5.87 18.63.5 12 .5z" fill="gray"/>
</svg>


